PathFileType	4	(X/Y/Z)	/Users/itak/Documents/Research/Walk-IL/dataset/trc/00175_00008.trc
DataRate	CameraRate	NumFrames	NumMarkers	Units	OrigDataRate	OrigDataStartFrame	OrigNumFrames
100.000000	100.000000	4	53	mm	100.000000	515	589
Frame#	Time	RPSI			LPSI			L3			STRN			T10			C7			CLAV			RBAK			LBAK			LSHO			LUPA			LAEL			LAOL			LWTS			LWPS			LFRA			LIFD			LHPS			LHTS			RSHO			RUPA			RAEL			RAOL			RWTS			RWPS			RFRA			RIFD			RHTS			RHPS			RBHD			LFHD			RFHD			LBHD			LHIP			RHIP			RASI			LASI			LKNE			LTHI			LANK			LTIP			LTOE			LMT1			LMT5			LHEE			RKNE			RTHI			RANK			RTIP			RTOE			RMT1			RMT5			RHEE			
		X1	Y1	Z1	X2	Y2	Z2	X3	Y3	Z3	X4	Y4	Z4	X5	Y5	Z5	X6	Y6	Z6	X7	Y7	Z7	X8	Y8	Z8	X9	Y9	Z9	X10	Y10	Z10	X11	Y11	Z11	X12	Y12	Z12	X13	Y13	Z13	X14	Y14	Z14	X15	Y15	Z15	X16	Y16	Z16	X17	Y17	Z17	X18	Y18	Z18	X19	Y19	Z19	X20	Y20	Z20	X21	Y21	Z21	X22	Y22	Z22	X23	Y23	Z23	X24	Y24	Z24	X25	Y25	Z25	X26	Y26	Z26	X27	Y27	Z27	X28	Y28	Z28	X29	Y29	Z29	X30	Y30	Z30	X31	Y31	Z31	X32	Y32	Z32	X33	Y33	Z33	X34	Y34	Z34	X35	Y35	Z35	X36	Y36	Z36	X37	Y37	Z37	X38	Y38	Z38	X39	Y39	Z39	X40	Y40	Z40	X41	Y41	Z41	X42	Y42	Z42	X43	Y43	Z43	X44	Y44	Z44	X45	Y45	Z45	X46	Y46	Z46	X47	Y47	Z47	X48	Y48	Z48	X49	Y49	Z49	X50	Y50	Z50	X51	Y51	Z51	X52	Y52	Z52	X53	Y53	Z53	

516	5.15	-1264.88720703125	1069.835571289062	405.7792663574219	-1270.041381835938	1068.229736328125	281.0292358398438	-1263.643188476562	1107.643310546875	344.9459838867188	-995.2682495117188	1311.34326171875	321.3584289550781	-1288.32568359375	1262.891479492188	340.1927185058594	-1224.425415039062	1532.940307617188	322.8015441894531	-1022.373046875	1425.53759765625	312.7938537597656	-1283.6103515625	1357.884521484375	437.605712890625	-1236.917846679688	1508.171630859375	221.6032104492188	-1164.206176757812	1495.388427734375	138.0469818115234	-1201.039428710938	1361.59716796875	67.5107421875	-1186.251831054688	1144.273681640625	48.35800933837891	-1225.420166015625	1127.686401367188	126.4395141601562	-1058.773193359375	920.9078979492188	68.78253936767578	-1143.414184570312	893.3065795898438	38.02437210083008	-1168.397827148438	1034.453979492188	33.77980041503906	-1025.74169921875	736.4468994140625	84.43650054931641	-1116.296875	825.494384765625	39.19655227661133	-1045.326293945312	842.963623046875	46.82001113891602	-1148.539428710938	1510.210083007812	498.4602966308594	-1162.723510742188	1443.969848632812	570.1170654296875	-1163.216186523438	1153.893188476562	627.5136108398438	-1176.355346679688	1146.497192382812	531.5081176757812	-999.4324340820312	944.2920532226562	593.48828125	-1066.983276367188	917.4992065429688	645.7080078125	-1129.490478515625	1082.994018554688	642.6181640625	-963.5286254882812	762.2366943359375	561.9522705078125	-960.0386352539062	855.1071166992188	597.8416137695312	-1027.622436523438	838.43359375	638.1832275390625	-1155.304565429688	1699.453735351562	397.0646667480469	-1015.277893066406	1736.799072265625	234.1387634277344	-989.1674194335938	1741.863403320312	361.505859375	-1188.14208984375	1701.692016601562	263.4909362792969	-1176.992553710938	1001.5390625	155.5486297607422	-1102.775756835938	1023.177124023438	520.4723510742188	-1025.690795898438	1047.900756835938	459.9842224121094	-1050.281494140625	1036.55078125	202.930419921875	-1130.891723632812	503.4573364257812	186.1837158203125	-1138.501953125	644.9616088867188	159.1409454345703	-1212.814697265625	40.66023635864258	181.6689910888672	-1166.835205078125	276.2266845703125	172.9928436279297	-994.8850708007812	43.89848709106445	196.8985137939453	-1040.152221679688	44.12093734741211	248.2879180908203	-1105.624389648438	31.05146408081055	136.7281494140625	-1261.569580078125	42.77984619140625	254.2895812988281	-1087.247680664062	522.29296875	494.4974975585938	-1048.008178710938	791.025390625	524.7554321289062	-1175.715576171875	32.97299957275391	491.337158203125	-1077.961303710938	401.41162109375	477.4992980957031	-953.6167602539062	59.84276962280273	457.779296875	-1004.933349609375	48.22448348999023	413.2232055664062	-1060.31640625	37.45879745483398	525.02734375	-1224.55810546875	33.39805603027344	422.4687805175781	
517	5.16	-1264.703002929688	1069.5859375	405.3340148925781	-1269.730712890625	1067.894165039062	280.6036071777344	-1263.444580078125	1107.347290039062	344.4746704101562	-995.5035400390625	1311.610107421875	321.0265197753906	-1288.438110351562	1262.458618164062	339.5890502929688	-1225.17578125	1532.689575195312	322.1471252441406	-1022.875183105469	1425.706176757812	312.427490234375	-1284.050903320312	1357.458618164062	436.9395751953125	-1237.434692382812	1507.9384765625	220.8957824707031	-1164.5751953125	1495.290405273438	137.4223937988281	-1201.0517578125	1361.330932617188	66.96624755859375	-1186.107299804688	1143.962158203125	48.52711486816406	-1225.423706054688	1127.679443359375	126.6242218017578	-1060.877685546875	919.3090209960938	69.38420104980469	-1145.706176757812	892.72998046875	38.44417190551758	-1169.13818359375	1034.087768554688	34.1226692199707	-1030.17822265625	734.3908081054688	85.44432067871094	-1119.4248046875	824.5882568359375	39.73802947998047	-1048.256103515625	841.1415405273438	47.59654998779297	-1149.491088867188	1510.113037109375	497.9035034179688	-1163.51806640625	1443.86328125	569.611083984375	-1162.947387695312	1153.851440429688	627.1282958984375	-1176.220825195312	1146.274658203125	530.9984741210938	-999.060791015625	944.3065185546875	593.2172241210938	-1066.57177734375	917.5867919921875	645.594482421875	-1129.1513671875	1083.031616210938	642.2937622070312	-963.22265625	762.1814575195312	562.0018310546875	-959.694580078125	855.12158203125	597.7258911132812	-1027.181884765625	838.5237426757812	638.1819458007812	-1155.684204101562	1699.905151367188	396.3723754882812	-1015.927673339844	1736.32958984375	232.9736938476562	-989.4982299804688	1741.765625	360.2662048339844	-1188.803588867188	1701.780029296875	262.9046325683594	-1176.45703125	1001.377319335938	155.2881774902344	-1102.811401367188	1023.233093261719	520.206787109375	-1025.50732421875	1048.05126953125	459.8362426757812	-1049.682983398438	1036.751708984375	202.7790832519531	-1130.057373046875	503.3507385253906	186.2081298828125	-1137.601684570312	644.8634643554688	159.1305999755859	-1212.697998046875	40.87947463989258	181.7138671875	-1166.220458984375	276.1388244628906	173.0562438964844	-994.7223510742188	43.71483612060547	196.9877014160156	-1040.045776367188	43.98583602905273	248.38916015625	-1105.577270507812	31.14358901977539	136.8054504394531	-1261.528076171875	42.83273696899414	254.3139801025391	-1087.002197265625	522.2837524414062	494.3608093261719	-1047.733520507812	791.0098876953125	524.597900390625	-1175.683715820312	33.01589965820312	491.3025207519531	-1077.718139648438	401.3582153320312	477.3744506835938	-953.5189819335938	59.62602996826172	457.7453002929688	-1004.887939453125	48.0692138671875	413.1920471191406	-1060.22509765625	37.44673919677734	525.0389404296875	-1224.510498046875	33.4691162109375	422.4241638183594	
518	5.17	-1264.477416992188	1069.335205078125	404.8723449707031	-1269.358642578125	1067.542236328125	280.1603698730469	-1263.193481445312	1107.031372070312	343.9931030273438	-995.6843872070312	1311.859619140625	320.716064453125	-1288.532592773438	1261.99462890625	338.9571228027344	-1225.90576171875	1532.414794921875	321.5140380859375	-1023.3515625	1425.853759765625	312.0762634277344	-1284.475952148438	1356.991577148438	436.2461853027344	-1237.922973632812	1507.686645507812	220.2004699707031	-1164.920532226562	1495.16796875	136.8056030273438	-1201.051025390625	1361.046630859375	66.43353271484375	-1186.035522460938	1143.631591796875	48.71816635131836	-1225.471069335938	1127.66162109375	126.8468551635742	-1063.026489257812	917.737548828125	70.00259399414062	-1148.011474609375	892.1614379882812	38.8912239074707	-1169.936645507812	1033.7060546875	34.48755645751953	-1034.607666015625	732.4103393554688	86.48383331298828	-1122.546264648438	823.705078125	40.31869125366211	-1051.196411132812	839.3687744140625	48.40191650390625	-1150.447631835938	1509.9775390625	497.3643798828125	-1164.336791992188	1443.715087890625	569.1121826171875	-1162.703491210938	1153.765625	626.725830078125	-1176.100463867188	1146.003662109375	530.3851928710938	-998.78564453125	944.2349243164062	592.9950561523438	-1066.27880859375	917.6260986328125	645.5208129882812	-1128.879272460938	1083.035766601562	641.9777221679688	-963.070068359375	762.0267944335938	562.1307983398438	-959.4759521484375	855.0499267578125	597.6758422851562	-1026.881958007812	838.55126953125	638.2277221679688	-1156.03076171875	1700.3076171875	395.6703491210938	-1016.5595703125	1735.849243164062	231.8162994384766	-989.8070068359375	1741.632690429688	359.0360107421875	-1189.449951171875	1701.849243164062	262.3145446777344	-1175.877563476562	1001.199645996094	155.0077667236328	-1102.839233398438	1023.278076171875	519.9400024414062	-1025.297973632812	1048.198120117188	459.7052612304688	-1048.91796875	1036.988647460938	202.6148223876953	-1129.329467773438	503.2481079101562	186.2346343994141	-1136.747924804688	644.7581176757812	159.1097106933594	-1212.589477539062	41.0931510925293	181.7417297363281	-1165.691772460938	276.0579833984375	173.1124420166016	-994.5625	43.54518890380859	197.0753631591797	-1039.944213867188	43.85493850708008	248.4871215820312	-1105.528442382812	31.23105812072754	136.88525390625	-1261.489624023438	42.87685775756836	254.3450469970703	-1086.728881835938	522.271240234375	494.2428894042969	-1047.409912109375	791.006103515625	524.4534912109375	-1175.649780273438	33.06001281738281	491.2681579589844	-1077.458251953125	401.3046264648438	477.2650756835938	-953.4107055664062	59.38071060180664	457.7236633300781	-1004.836730957031	47.89781951904297	413.1670227050781	-1060.131225585938	37.43060684204102	525.0584106445312	-1224.46044921875	33.53759384155273	422.3840026855469	
519	5.18	-1264.211669921875	1069.078369140625	404.3950805664062	-1268.925170898438	1067.175170898438	279.6991882324219	-1262.8916015625	1106.696533203125	343.4993286132812	-995.81201171875	1312.086791992188	320.4234313964844	-1288.605712890625	1261.504638671875	338.2971801757812	-1226.610717773438	1532.118408203125	320.8959045410156	-1023.797729492188	1425.97998046875	311.7328796386719	-1284.8837890625	1356.487915039062	435.5310974121094	-1238.383544921875	1507.412353515625	219.5214538574219	-1165.24169921875	1495.0126953125	136.1985168457031	-1201.0458984375	1360.735107421875	65.91612243652344	-1186.041137695312	1143.273193359375	48.9254150390625	-1225.566040039062	1127.62353515625	127.0976028442383	-1065.202880859375	916.198486328125	70.63268280029297	-1150.314453125	891.5916137695312	39.36142349243164	-1170.785888671875	1033.300048828125	34.87111663818359	-1038.982299804688	730.5155639648438	87.54203033447266	-1125.634521484375	822.8387451171875	40.93622970581055	-1054.12060546875	837.6502685546875	49.22646331787109	-1151.398559570312	1509.808227539062	496.841064453125	-1165.167358398438	1443.530639648438	568.6158447265625	-1162.502685546875	1153.635131835938	626.3057861328125	-1176.009521484375	1145.702392578125	529.7081909179688	-998.6090087890625	944.0880126953125	592.8219604492188	-1066.099853515625	917.6201782226562	645.4774169921875	-1128.684326171875	1083.007446289062	641.6622314453125	-963.0607299804688	761.7843627929688	562.3292846679688	-959.3738403320312	854.9044799804688	597.6860961914062	-1026.719482421875	838.5187377929688	638.3096313476562	-1156.356079101562	1700.652221679688	394.958740234375	-1017.177001953125	1735.372436523438	230.6765899658203	-990.098876953125	1741.475463867188	357.8242797851562	-1190.07861328125	1701.893676757812	261.7208251953125	-1175.247314453125	1001.009155273438	154.7088623046875	-1102.837524414062	1023.3056640625	519.6802978515625	-1025.0654296875	1048.342407226562	459.5898132324219	-1048.046997070312	1037.220336914062	202.4426116943359	-1128.717529296875	503.1512145996094	186.2556304931641	-1135.953491210938	644.646484375	159.069580078125	-1212.494018554688	41.28497695922852	181.7555389404297	-1165.263061523438	275.9872741699219	173.1537170410156	-994.416015625	43.39545440673828	197.1583404541016	-1039.849975585938	43.73405456542969	248.5785980224609	-1105.480834960938	31.31077575683594	136.9635162353516	-1261.456420898438	42.91025924682617	254.3805847167969	-1086.428344726562	522.2554931640625	494.1407165527344	-1047.043701171875	791.01416015625	524.3246459960938	-1175.614013671875	33.10518264770508	491.2345886230469	-1077.183227539062	401.2507629394531	477.1686401367188	-953.2994995117188	59.10208129882812	457.7118225097656	-1004.780456542969	47.71046447753906	413.1477661132812	-1060.036743164062	37.41093826293945	525.0841674804688	-1224.408813476562	33.60225677490234	422.3465270996094	
